{"title":"Skeleton Lake 2012 DVDrip English Klam","uid":6646420,"size":1294016928,"categoryP":"video","categoryS":"movies","magnet":"?xt=urn:btih:bb80721e69f08403e533d9b7c49544840fc33fa3&amp;dn=Skeleton+Lake+2012+DVDrip+English+Klam&amp;tr=udp%3A%2F%2Ftracker.openbittorrent.com%3A80&amp;tr=udp%3A%2F%2Fopen.demonii.com%3A1337&amp;tr=udp%3A%2F%2Ftracker.coppersurfer.tk%3A6969&amp;tr=udp%3A%2F%2Fexodus.desync.com%3A6969","seeders":0,"leechers":0,"uploader":"Klambake","files":-1,"time":1314924582,"description":"With: Bryan Larkin, Bob Cymbalski en Hugh Lambe\n\nEen groepje van zes meedogenloze bankovervallers ontmoet in de bossen iemand die nog gevaarlijker is dan zijzelf. Het blijkt te gaan om een oorlogsveteraan die een arsenaal aan wapens bij zich heeft en hij is niet van plan de bankovervallers zomaar te laten gaan.\n\nThe Ambush Begins...\n\n------------------ Dutch Friends ------------------\nYou can find my Friends at: http://www.Film-Test.nl \n------ They got my dutchs subs ---- and more ------\n\nGeneral:\n\nComplete name                    : Skeleton Lake\\Skeleton Lake.avi\nFormat                           : AVI\nFormat/Info                      : Audio Video Interleave\nFile size                        : 1.21 GiB\nDuration                         : 1h 25mn\nOverall bit rate                 : 2 020 Kbps\n\nVideo:\n\nFormat                           : MPEG-4 Visual\nFormat profile                   : Simple@L3\nFormat settings, BVOP            : No\nFormat settings, QPel            : No\nFormat settings, GMC             : No warppoints\nFormat settings, Matrix          : Default (H.263)\nCodec ID                         : XVID\nCodec ID/Hint                    : XviD\nDuration                         : 1h 25mn\nBit rate                         : 1 561 Kbps\nWidth                            : 720 pixels\nHeight                           : 304 pixels\nDisplay aspect ratio             : 2.35:1\nFrame rate                       : 23.976 fps\nColor space                      : YUV\nChroma subsampling               : 4:2:0\nBit depth                        : 8 bits\nScan type                        : Progressive\nBits/(Pixel*Frame)               : 0.298\nStream size                      : 954 MiB (77%)\nWriting library                  : XviD 1.1.2 (UTC 2006-11-01)\n\nAudio:\n\nFormat                           : AC-3\nFormat/Info                      : Audio Coding 3\nMode extension                   : CM (complete main)\nCodec ID                         : 2000\nDuration                         : 1h 25mn\nBit rate mode                    : Constant\nBit rate                         : 448 Kbps\nChannel(s)                       : 6 channels\nChannel positions                : Front: L C R, Side: L R, LFE\nSampling rate                    : 48.0 KHz\nBit depth                        : 16 bits\nStream size                      : 274 MiB (22%)\nAlignment                        : Aligned on interleaves\nInterleave, duration             : 32 ms (0.77 video frame)\nInterleave, preload duration     : 32 ms\n\n\n","torrent":{"xt":"urn:btih:bb80721e69f08403e533d9b7c49544840fc33fa3","amp;dn":"Skeleton+Lake+2012+DVDrip+English+Klam","amp;tr":["udp%3A%2F%2Ftracker.openbittorrent.com%3A80","udp%3A%2F%2Fopen.demonii.com%3A1337","udp%3A%2F%2Ftracker.coppersurfer.tk%3A6969","udp%3A%2F%2Fexodus.desync.com%3A6969"],"infoHash":"bb80721e69f08403e533d9b7c49544840fc33fa3","infoHashBuffer":{"type":"Buffer","data":[187,128,114,30,105,240,132,3,229,51,217,183,196,149,68,132,15,195,63,163]},"announce":[],"urlList":[]}}